<svg id="visual" viewBox="0 0 900 600" width="900" height="600" xmlns="http://www.w3.org/2000/svg" xmlns:xlink="http://www.w3.org/1999/xlink" version="1.1"><rect x="0" y="0" width="900" height="600" fill="#001220"></rect><defs><linearGradient id="grad1_0" x1="33.3%" y1="100%" x2="100%" y2="0%"><stop offset="20%" stop-color="#001220" stop-opacity="1"></stop><stop offset="80%" stop-color="#001220" stop-opacity="1"></stop></linearGradient></defs><defs><linearGradient id="grad2_0" x1="0%" y1="100%" x2="66.7%" y2="0%"><stop offset="20%" stop-color="#001220" stop-opacity="1"></stop><stop offset="80%" stop-color="#001220" stop-opacity="1"></stop></linearGradient></defs><g transform="translate(900, 600)"><path d="M-486.7 0C-447.3 -49.4 -407.9 -98.7 -390.8 -161.9C-373.7 -225 -378.9 -301.9 -344.2 -344.2C-309.4 -386.4 -234.7 -394.1 -170.7 -412.1C-106.6 -430 -53.3 -458.4 0 -486.7L0 0Z" fill="#FBAE3C"></path></g><g transform="translate(0, 0)"><path d="M486.7 0C467 57.2 447.2 114.3 427.8 177.2C408.3 240 389.3 308.5 344.2 344.2C299 379.8 227.8 382.7 166.1 401C104.4 419.3 52.2 453 0 486.7L0 0Z" fill="#FBAE3C"></path></g></svg>